<?xml version="1.0" encoding="utf-8"?>
<!-- Generator: Adobe Illustrator 23.0.1, SVG Export Plug-In . SVG Version: 6.00 Build 0)  -->
<svg version="1.1" id="goalpost" xmlns="http://www.w3.org/2000/svg" xmlns:xlink="http://www.w3.org/1999/xlink" x="0px" y="0px"
	 viewBox="0 0 344.95 158.03" style="enable-background:new 0 0 344.95 158.03;" xml:space="preserve">
<g id="post_steps">
	<g transform="translate(0.000000,640.000000) scale(0.100000,-0.100000)">
		<path d="M1786.79,6300.82c-899.32-128.55-1309.5-186.76-1505.16-213.18c-32.61-4.31-59.56-6.74-60.1-5.66
			c-0.81,2.69-1.35,2.69-47.43-6.47c-28.3-5.39-33.15-7.28-41.23-15.09c-5.39-5.12-10.51-14.01-12.94-22.37
			c-2.16-7.28-10.78-80.85-19.13-163.05c-16.17-162.78-23.45-234.2-69.8-690.73C14.01,5017.19,0,4877.32,0,4873.54
			c0-6.2,0.81-6.74,7.28-5.12c4.04,0.81,15.36,2.16,25.06,2.7s52.01,8.35,94.33,17.52c42.31,8.89,110.76,23.45,152.27,32.34
			s121.54,25.87,177.87,37.73c56.33,11.86,136.37,28.84,177.87,37.73c177.87,37.73,283.51,60.1,331.49,70.88l51.21,11.1h171.13
			c94.06-0.86,253.6-2.2,354.39-3.82c100.79-1.35,287.02-3.77,413.68-5.39c126.67-1.62,240.66-3.5,253.06-4.31l22.37-1.62
			l-1.62-12.4c-0.81-7.01-5.66-54.44-11.05-105.64c-5.12-51.21-10.24-99.98-11.05-108.34l-1.89-17.2h9.43
			c5.39,1.57,264.11,55.47,575.11,121.5c311.27,66.03,586.7,124.51,612.31,129.9l46.22,9.7v41.5c0.14,34.77-0.4,41.23-3.9,41.23
			s-4.04,14.55-4.04,115.62c0,115.08,0,115.62-6.74,138.79c-29.65,102.14-194.04,408.83-348.46,649.77
			c-69.26,108.07-120.2,177.6-153.88,209.67c-18.06,17.25-26.95,23.18-54.71,36.65c-59.02,29.11-128.82,48.78-237.97,67.38
			c-60.64,10.24-127.47,18.86-146.88,18.6C2484.79,6399.99,2167.05,6355.26,1786.79,6300.82z M2532.5,6287.34
			c194.58-28.57,308.04-54.17,332.02-74.38c53.9-46.35,251.71-369.75,431.47-705.82c51.74-96.21,58.75-112.65,62.52-143.64
			c2.96-26.41,4.85-203.47,1.89-206.44c-0.81-0.81-52.01-6.47-114-12.4l-112.38-9.65H3007.9h-126.4l1.35,34.72
			c0.81,19.4,2.16,36.38,3.23,37.46c0.81,1.08,18.86,2.7,40.16,3.77l38.27,1.89l-1.35-36.11c-1.08-23.72-0.54-34.23,1.08-30.72
			c1.35,2.96,2.7,19.13,2.7,35.84c0.27,21.83,1.35,30.72,3.77,31.53c1.62,0.54,19.94,1.62,40.43,2.16l36.78,1.35v-33.96
			c0.95-28.03,1.22-31.53,2.83-19.4c1.35,8.09,2.56,34.23,2.56,34.23l0.27,19.13l29.11,1.62c15.9,0.81,36.38,2.16,45.55,2.69
			l16.44,1.08l-1.08-32.88c-0.54-23.72-0.27-29.65,1.62-21.83c1.35,5.93,2.43,20.75,2.43,33.15l0.27,23.22h11.55
			c6.45,0,23.1,0.81,36.53,1.89l24.98,1.62l-1.88-30.72c-1.07-16.98-1.07-29.91,0-28.84c1.07,1.08,2.95,14.01,4.03,29.11
			c1.07,15.09,2.69,28.03,3.49,28.57c0.81,0.81,20.41,2.43,43.51,3.77c23.37,1.35,42.97,3.23,44.05,4.31
			c0.81,1.08-18.53,0.81-43.24-0.27l-45.12-1.89v6.47c0.27,5.12,7.55,104.3,7.82,106.72c0.27,0.27,16.44,0.54,36.11,0.54
			c20.75,0,37.19,1.35,39.62,2.96c2.96,2.16-7.28,2.43-36.11,1.35l-40.16-1.35l1.62,18.06c0.81,9.97,3.23,42.04,4.85,71.15
			l3.5,53.36h10.24c5.66,0,10.24,1.35,10.24,2.69c0,1.62-4.31,2.69-9.7,2.69h-9.29l0.54,16.17c0.81,22.91-1.89,22.91-4.31,0.27
			l-1.89-19.13h-39.08h-39.08l1.62,18.33c2.96,34.5,7.55,154.15,5.93,158.2c-1.08,3.5-8.89,4.04-49.05,4.04h-46.3l1.62,44.1
			c1.08,24.08,2.43,53.84,3.25,66.29c1.62,21.1,1.89,22.19,8.12,22.19c3.52,0,6.49,1.35,6.49,2.71c0,1.62-2.98,2.71-6.76,2.71
			c-6.22,0-6.76,1.08-7.03,12.99c-0.27,13.8-1.08,12.99-3.79-2.71l-1.62-10.28l-37.07,1.62c-20.29,1.08-37.34,1.89-37.61,2.16
			c-0.27,0.27,1.08,33.28,2.98,73.32c2.16,40.31,2.71,74.13,1.62,75.48c-1.35,1.35-20.29,4.06-42.21,6.22
			c-21.91,1.89-40.31,4.06-40.58,4.33s0.81,26.51,2.16,58.17c1.62,32.74,1.89,58.71,0.54,60.06c-1.35,1.08-19.48,4.06-40.31,6.49
			c-56.55,6.76-50.59,2.71-49.78,34.09c0.54,14.88,0,27.6-0.81,28.41c-0.81,0.81-2.16-11.09-3.25-26.24
			c-1.08-15.15-2.16-28.14-2.71-28.41c-0.81-0.81-37.34,3.25-55.46,6.22l-8.93,1.35l1.89,24.62c1.08,14.88,0.81,23.81-0.81,22.73
			c-1.35-0.81-3.25-11.36-4.06-23.27c-0.81-12.17-1.89-22.46-2.44-23c-1.08-1.08-77.92,8.39-79.27,10.01
			c-0.81,0.54,0,14.34,1.35,30.57c2.44,26.78,2.16,34.09-1.08,30.84c-0.81-0.54-2.16-14.88-3.25-31.93l-1.89-30.57l-7.03,1.35
			c-3.79,0.81-20.83,2.98-37.61,4.87l-30.3,3.25l1.08,8.39c3.25,20.29,4.6,56.28,2.16,54.65c-1.35-0.81-3.52-14.88-4.6-31.38
			c-2.16-34.63,2.98-31.93-45.72-25.43c-17.59,2.16-32.74,3.52-33.55,2.71c-2.43-2.44,4.87-4.06,41.12-8.12
			c19.21-2.44,35.17-4.6,35.44-4.87c0.81-1.89-9.2-122.02-10.55-123.37c-0.81-0.81-20.56,0.27-43.56,2.44
			c-23,2.16-41.94,2.98-41.94,2.16c0-2.16,11.63-3.79,55.46-8.12c16.23-1.35,30.03-2.98,30.3-3.25
			c0.54-0.54-11.63-160.71-12.45-163.69c-0.27-0.54-11.63-0.54-25.7,0c-33.82,1.08-35.71-1.89-2.71-4.06
			c14.61-1.08,26.78-2.44,27.33-2.98c0.54-0.54-1.35-33.55-4.33-73.32c-3.25-39.5-5.68-74.4-5.68-77.38c0-4.87-2.16-5.14-43.29-5.14
			c-26.24,0-43.29-1.08-43.29-2.71c0-1.62,17.32-2.98,42.75-3.25l42.48-0.81l-7.3-94.69c-4.06-51.95-7.31-96.05-7.31-97.67
			c-0.27-1.89-13.26-4.06-35.98-5.68l-35.98-2.71l37.05-2.69h35.84l-1.62-13.79c-0.81-8.62-3.23-39.89-5.66-69.53
			c-2.16-29.38-4.58-54.17-5.12-54.71c-0.54-0.54-19.4-1.89-41.5-2.7c-22.37-0.81-40.69-2.43-40.69-3.5
			c0-1.35,18.86-1.62,42.04-0.54l42.31,1.62l-1.62-9.16c-0.81-5.12-3.23-31.8-4.85-59.83c-1.89-27.76-4.31-52.01-5.66-53.9
			c-1.35-2.16-10.78-3.5-27.76-4.04c-14.28-0.54-25.6-2.16-25.6-3.77c0-1.62,9.97-1.89,27.49-0.54l27.22,1.89l-1.62-16.98
			c-1.08-9.43-1.89-22.37-2.02-28.57v-10.73h-52.41h-52.69v6.42c0.14,4.04,1.22,23.18,2.83,42.31c1.35,19.4,6.2,89.74,10.78,156.31
			c4.31,66.84,12.94,193.23,18.86,281.09c26.68,396.17,32.61,484.02,37.73,561.1c5.66,85.16,7.82,110.5,9.43,110.5
			C2494.77,6292.73,2512.01,6290.31,2532.5,6287.34z M2351.25,6265.83c-0.81-5.66-8.62-83.54-17.52-173.29
			c-20.75-213.71-30.45-310.2-43.12-439.29c-5.66-58.48-14.28-144.72-18.86-191.35c-22.91-234.2-29.65-301.84-31.26-315.05
			l-1.89-14.55l-153.88,1.62c-84.62,1.08-358.97,1.89-609.88,1.89c-359.51,0-456.53,0.81-458.15,3.5
			c-1.08,1.62-2.7,49.86-3.5,106.99l-1.62,103.76l-8.35,21.56c-15.9,40.69-27.49,66.03-59.83,129.9
			c-102.14,202.4-262.49,463.81-322.05,525.26c-12.67,13.21-13.48,14.82-8.62,15.9c3.23,0.81,137.18,18.87,298.07,40.43
			c402.63,53.63,871.3,116.42,1176.37,157.66c140.95,18.87,258.18,34.5,260.88,34.77
			C2351.79,6275.8,2352.33,6274.18,2351.25,6265.83z M2639.08,6122.68l31.53-3.23v-12.4c-0.27-19.13-7.28-108.07-8.89-109.69
			c-0.54-0.81-17.25,0.27-36.65,1.89l-35.3,3.5v9.43c0,5.39,1.89,30.99,4.04,56.86s4.04,49.86,4.04,53.36
			c0,4.58,1.35,5.93,4.85,4.85C2605.12,6126.72,2621.56,6124.56,2639.08,6122.68z M2718.99,6112.98l38.54-4.58l-1.62-12.13
			c-0.81-7.01-2.96-32.61-4.58-57.4c-1.89-24.79-4.04-46.35-5.12-47.7c-1.62-2.96-73.57,2.43-76.81,5.66
			c-2.96,2.69,6.2,120.74,9.16,120.74C2679.37,6117.56,2697.7,6115.67,2718.99,6112.98z M2796.88,6103.81
			c14.28-1.89,27.22-4.04,28.3-5.12c1.62-1.35-2.7-116.42-4.58-117.5c-1.08-0.81-66.57,6.47-67.64,7.55
			c-0.81,0.54,0.81,27.49,3.23,59.56c4.31,53.63,5.12,58.48,9.7,58.48C2768.58,6106.78,2782.59,6105.43,2796.88,6103.81z
			 M2870.99,6094.65c18.06-2.16,36.65-4.58,40.96-5.39l8.09-1.35l-2.43-57.13c-1.08-31.53-2.43-57.67-2.7-57.94
			c-0.54-0.54-83.55,7.28-86.51,8.35c-2.7,0.81-0.27,97.56,2.96,111.57C2832.72,6099.77,2830.29,6099.77,2870.99,6094.65z
			 M481.06,5998.71c39.35-3.23,72.77-8.62,85.43-14.01c15.36-6.47,40.96-42.85,102.14-145.26
			c59.02-98.64,123.43-213.17,194.31-344.42c60.1-111.57,80.31-153.62,83.01-172.75c4.04-27.76,6.2-109.42,4.04-147.96l-1.89-36.38
			l-135.02-12.67c-74.38-7.01-253.33-23.99-397.24-37.73c-144.18-13.48-262.49-24.25-263.03-23.45
			c-0.54,0.54,2.43,50.94,6.47,111.57c4.04,60.91,9.97,146.88,12.94,191.35c3.23,44.47,9.97,144.45,15.09,222.34
			c5.39,77.89,12.67,185.15,16.17,238.51c3.77,53.36,7.55,111.3,8.62,128.82c1.08,19.94,2.7,32.61,4.58,33.15
			c1.89,0.81,23.72,4.31,48.78,7.82c42.04,5.93,51.74,6.47,114.54,5.12C417.73,6002.21,463.27,6000.32,481.06,5998.71z
			 M2637.87,5993.86c12.4-1.35,22.91-2.96,23.72-3.77c1.08-1.08-9.43-159.27-10.78-159.81c-1.89-0.81-71.96,3.5-73.03,4.85
			c-1.35,1.35,8.89,153.88,10.78,160.35c0.81,2.16,5.39,2.96,14.01,1.89C2609.57,5996.55,2625.47,5994.93,2637.87,5993.86z
			 M2722.49,5986.31l24.52-1.62l-1.62-16.44c-0.81-9.16-3.77-44.74-6.2-79.23l-4.85-62.79l-38,1.89
			c-20.75,0.81-38.27,2.16-39.08,2.43c-1.08,0.54,9.16,154.69,10.51,160.08c0.27,0.54,7.01,0.27,15.09-0.81
			C2691.23,5989.01,2709.02,5987.39,2722.49,5986.31z M2806.31,5978.23l15.9-1.62l-1.62-15.09c-0.81-8.35-2.16-30.72-2.96-50.13
			c-0.81-19.13-2.16-46.89-2.96-61.72l-1.62-26.68l-36.38,1.35c-19.67,0.81-36.65,1.89-37.19,2.69
			c-1.35,1.08,8.62,131.52,11.05,147.42l1.35,8.89l19.4-1.62C2782.05,5980.65,2797.68,5979.3,2806.31,5978.23z M2883.39,5970.95
			l30.72-2.96l-0.54-24.25c-0.27-13.21-1.62-44.74-2.96-70.07c-1.35-25.06-2.7-47.97-2.7-50.67c0-4.58-2.69-4.85-42.31-3.23
			c-23.45,1.08-43.93,2.16-45.28,2.69c-1.89,0.27-2.16,11.86-1.08,32.61c1.08,17.79,2.7,52.28,3.77,76.81l1.89,44.74l14.01-1.35
			C2846.46,5974.72,2866.41,5972.57,2883.39,5970.95z M2982.83,5962.06l16.71-1.62l-0.27-12.4c-0.27-6.74-1.62-39.62-3.23-72.77
			l-3.23-60.37l-24.26,0.54c-13.21,0.27-31.53,1.08-40.16,2.16l-15.9,1.62l1.89,42.04c0.81,23.18,2.43,56.33,3.5,74.11l1.62,31.8
			l23.18-1.62C2955.34,5964.48,2973.4,5963.13,2982.83,5962.06z M2650.67,5826.54c0.27,0-1.89-29.91-4.58-66.3
			c-2.69-36.38-4.85-70.61-5.12-76v-10.24h-39.08h-38.81l1.08,7.55c0.54,4.04,2.96,35.3,5.39,69.26
			c2.43,34.23,4.85,66.03,5.66,70.88l1.35,9.16l36.92-1.89C2633.69,5827.89,2650.67,5826.81,2650.67,5826.54z M2698.78,5824.93
			c14.82,0,28.84-1.08,30.99-2.43c2.96-1.89,2.69-13.48-2.16-71.96c-3.23-38.54-5.66-71.42-5.66-73.03c0-2.7-9.7-3.5-39.08-3.5
			h-39.35l1.62,12.94c1.89,16.44,9.43,122.89,9.43,133.4c0,7.55,0.54,7.82,8.35,6.2
			C2667.52,5825.74,2683.69,5824.93,2698.78,5824.93z M2812.78,5818.73c0.27-0.54-6.47-140.95-7.28-143.91
			c0-0.54-18.06-0.81-40.43-0.81h-40.16l1.08,7.55c0.81,4.04,2.96,32.07,5.39,62.52c2.16,30.45,4.85,60.64,5.66,67.11l1.62,11.86
			l36.65-1.89C2795.53,5820.08,2812.51,5819,2812.78,5818.73z M2896.86,5815.23l11.86-1.62l-1.62-23.18
			c-1.08-12.94-2.43-44.47-3.5-69.8l-1.89-46.62h-45.81h-45.82l1.62,30.45c1.08,16.44,2.7,49.32,3.5,72.77l1.89,42.31l33.96-1.35
			C2869.64,5817.38,2890.39,5816.03,2896.86,5815.23z M2965.58,5812.26l26.68-1.62l-1.89-47.43c-0.81-26.14-2.43-56.86-3.23-68.18
			l-1.89-21.02h-40.16h-40.43l1.62,12.94c0.81,7.01,2.16,36.38,2.96,65.22c1.08,28.84,2.43,54.71,2.96,57.4
			C2913.84,5814.69,2921.92,5815.23,2965.58,5812.26z M3045.09,5808.76h27.76l-1.62-54.44c-1.08-30.18-2.43-60.37-3.23-67.38
			l-1.62-12.94h-37.73h-38l1.89,43.93c0.81,23.99,2.43,54.98,3.5,68.99l1.62,25.06l9.7-1.62
			C3012.75,5809.57,3029.72,5808.76,3045.09,5808.76z M2638,5654.6c-0.27-21.83-11.86-176.79-13.21-178.14
			c-0.81-0.81-18.06-2.16-38.27-3.23l-37.19-1.89v7.55c0,4.31,2.96,46.62,6.74,94.06c3.77,47.43,6.74,88.4,6.74,91.09
			c0,4.04,3.5,4.58,37.73,4.58h37.73L2638,5654.6z M2720.07,5661.34c-0.27-4.31-3.77-46.89-7.82-95.13
			c-3.77-48.24-7.28-87.86-7.55-88.13c-1.89-1.89-74.38-3.77-74.38-1.89c0,1.35,2.96,43.66,6.74,94.06s6.74,93.25,6.74,95.13
			c0,2.43,9.43,3.23,38.54,3.23h38.81L2720.07,5661.34z M2804.69,5641.13c-1.08-15.36-3.23-57.4-4.85-93.79
			c-1.62-36.38-3.23-66.3-3.5-66.3c0-0.27-19.67-1.35-43.66-2.43l-43.12-1.89l0.81,9.16c1.89,19.67,14.28,173.56,14.28,178.14
			c0,4.04,3.77,4.58,40.69,4.58h40.96L2804.69,5641.13z M2900.36,5649.21c-0.54-10.78-2.43-52.28-4.04-92.44l-3.23-72.77
			l-45.55-2.16c-25.06-1.08-45.82-1.89-46.08-1.35c-0.54,0.81,8.62,185.42,9.16,187.57c0.27,0.27,20.48,0.54,45.55,0.54h45.01
			L2900.36,5649.21z M2985.93,5665.38c0-1.89-1.89-37.46-4.04-78.96s-4.04-81.12-4.04-87.86v-12.4l-39.62-1.35
			c-22.1-0.81-40.16-1.08-40.69-0.81c-0.27,0.27,1.08,38.54,3.5,85.16c2.16,46.62,4.04,87.86,4.04,92.17v7.28h40.43
			C2975.96,5668.62,2985.93,5667.81,2985.93,5665.38z M3065.7,5619.57c-1.08-27.22-2.69-67.38-3.77-89.74l-1.62-40.42l-37.73-1.62
			c-20.75-1.08-38.54-1.08-39.35,0c-0.81,0.81,0,30.72,1.89,66.3c1.89,35.57,3.5,76,3.5,89.74l0.27,24.79h39.35h39.35
			L3065.7,5619.57z M3164.74,5643.82c-0.81-13.74-2.69-53.63-4.58-88.4l-2.96-63.33l-45.82-1.62c-25.06-0.81-46.08-1.35-46.35-1.08
			c-0.54,0.27,6.47,175.18,7.28,178.68c0,0.27,21.02,0.54,46.89,0.54h46.89L3164.74,5643.82z M3238.05,5470.22
			c-0.81-10.78-3.23-42.31-5.12-70.34c-1.89-27.76-4.04-50.94-4.58-51.47c-0.54-0.54-17.25-1.62-37.19-2.43l-36.11-1.62l1.89,43.66
			c0.81,23.99,2.43,56.06,3.5,71.15l1.62,27.49l23.18,1.08c12.67,0.27,30.18,1.08,38.81,1.35l15.63,0.54L3238.05,5470.22z
			 M3154.77,5441.7c-0.81-25.6-2.43-57.94-3.5-71.42l-1.62-25.06h-23.18c-12.67,0-33.42-0.81-45.81-1.89l-22.64-1.62l1.89,34.77
			c0.81,19.13,2.43,51.47,3.23,71.69l1.89,36.92l32.61,1.08c17.79,0.27,38.54,1.08,45.81,1.35l13.21,0.54L3154.77,5441.7z
			 M3058.42,5456.74c-0.27-37.19-3.77-112.11-5.39-113.46c-0.54-0.81-18.6-2.16-39.89-3.23l-38.81-1.89l1.62,34.5
			c1.08,19.13,2.7,51.47,3.5,71.69l1.89,36.92l31.26,1.08c17.25,0.27,34.5,1.08,38.81,1.35l7.28,0.54L3058.42,5456.74z
			 M2976.36,5462.13c-0.54-10.78-2.43-42.58-3.5-70.34c-1.35-28.03-2.96-51.21-3.5-51.47c-0.27-0.54-18.33-1.62-39.62-2.69
			l-38.81-1.89l1.89,46.62c0.81,25.6,2.43,57.67,3.23,71.42l1.89,24.79l33.96,1.08c18.6,0.27,36.65,1.08,39.89,1.35
			C2977.71,5481.54,2977.98,5481,2976.36,5462.13z M2891.74,5460.78c0-18.33-5.39-122.89-6.2-123.7
			c-0.27-0.27-21.02-1.35-46.08-2.43l-45.55-2.16l2.16,46.89c1.08,25.87,2.69,57.94,3.77,71.15l1.62,24.26l39.08,1.35
			c21.56,0.81,41.77,1.89,45.28,2.16C2891.47,5478.84,2891.74,5477.76,2891.74,5460.78z M2792.83,5403.16
			c-1.89-38.27-3.77-69.8-4.31-70.34c-0.54-0.27-21.29-1.62-46.08-2.69l-45.28-1.62l1.62,15.9c0.81,8.62,3.5,39.62,5.93,68.45
			c2.16,28.84,4.58,53.9,5.12,55.79c0.81,2.16,14.01,3.23,43.66,3.23l42.58,0.54L2792.83,5403.16z M2704.06,5459.44
			c-0.81-7.3-3.25-38.41-5.68-69.79l-4.6-56.81l-10.82-1.89c-5.95-1.08-22.72-1.89-37.33-1.89l-26.78-0.27l1.62,15.69
			c0.81,8.39,2.98,34.9,4.33,58.7c4.06,60.33,4.87,65.74,10.28,67.09c2.43,0.81,19.21,1.35,37.33,1.62l32.73,0.27L2704.06,5459.44z
			 M2623.99,5449.78c-0.81-10.78-2.96-42.31-4.85-69.8l-3.5-50.13l-17.52-1.89c-9.7-0.81-27.22-1.62-38.54-1.62h-21.02v7.55
			c0,11.59,8.35,128.28,9.7,132.06c0.54,2.43,10.78,3.23,39.08,3.23h38.27L2623.99,5449.78z M3228.35,5335.47
			c-0.27-22.91-7.01-101.87-8.62-103.76c-2.43-2.16-67.38-5.93-69.26-3.77c-0.81,0.81-0.27,26.41,1.35,56.86l2.7,55.25l33.69,1.35
			c18.6,0.81,35.3,1.89,37.19,2.16S3228.62,5340.86,3228.35,5335.47z M3149.38,5320.42c-0.81-12.4-2.43-38.27-3.23-57.67l-1.62-35.3
			l-32.61-1.89c-17.79-0.81-38.27-1.62-45.55-1.62h-13.21l1.35,26.41c0.81,14.28,2.43,40.42,3.23,57.67l1.62,31.8l42.04,0.81
			c23.45,0.27,43.93,1.08,46.08,1.35C3150.46,5342.52,3150.73,5338.21,3149.38,5320.42z M3052.09,5279.41
			c-1.35-38.27-2.96-57.4-5.12-57.94c-1.62-0.54-19.67-1.62-40.43-2.43l-37.19-1.62l1.62,49.32c1.08,26.95,2.43,53.63,3.23,59.02
			l1.62,9.97l38,0.81c21.02,0.54,38.81,0.54,39.35,0.27C3053.71,5336.54,3053.17,5310.67,3052.09,5279.41z M2968.82,5300.21
			c-4.04-78.69-4.31-81.66-10.78-81.93c-2.96,0-20.75-1.08-39.08-1.89l-33.15-1.89l1.89,57.94c1.08,31.8,2.43,58.75,3.23,60.1
			c0.54,1.08,18.87,1.89,40.43,1.89h39.08L2968.82,5300.21z M2885.27,5304.79c-0.81-13.74-2.16-40.43-3.23-59.02l-1.62-34.23
			l-45.81-1.89c-25.06-1.08-45.82-1.62-46.35-1.08c-0.27,0.54,0.54,27.49,1.89,59.56l2.7,58.48l9.7,1.08
			c5.39,0.54,26.41,1.08,47.16,1.35l37.19,0.54L2885.27,5304.79z M2787.71,5296.71c-0.81-16.71-2.43-43.66-3.5-60.1l-1.62-29.65
			l-46.62-2.43c-25.6-1.08-47.16-1.62-47.7-1.35c-0.81,1.08,5.12,80.85,8.08,106.72l1.62,14.01l12.67,1.08
			c7.01,0.54,27.49,1.08,45.81,1.35l33.15,0.54L2787.71,5296.71z M2691.36,5307.17c-1.08-10.24-3.23-37.46-4.85-60.64l-3.23-42.31
			l-11.05-1.35c-6.2-0.81-22.37-1.89-35.84-2.43l-25.06-1.08v9.7c0,5.39,1.89,32.07,4.04,59.56c2.16,27.49,4.04,50.67,4.04,51.74
			c0,2.16,16.71,3.77,49.59,4.31l23.99,0.54L2691.36,5307.17z M2614.02,5313.91c0-10.78-7.82-113.46-8.89-114.27
			c-0.27-0.27-18.06-1.35-39.35-2.43l-38.81-1.89l1.62,16.98c1.08,9.43,3.23,37.46,4.85,62.25l3.23,45.01l11.05,1.08
			c6.2,0.54,23.45,1.08,38.81,1.35l27.49,0.54V5313.91z M2880.01,5192.41c-1.08-10.24-1.89-27.22-1.89-37.73v-19.67h-47.43h-47.43
			l2.16,34.5c0.81,18.86,1.89,34.5,2.43,34.77c0.27,0.54,54.17,4.31,85.97,5.93l7.82,0.27L2880.01,5192.41z M2782.05,5178.93
			c-0.54-14.55-1.62-30.45-2.43-35.03l-1.35-8.89h-48.78h-48.51l1.62,14.28c0.81,7.55,2.16,22.1,3.23,32.34
			c1.62,15.9,2.43,18.06,7.55,18.33c2.96,0.27,19.13,1.35,35.3,2.43c16.44,0.81,35.3,1.89,42.04,2.16l12.4,0.54L2782.05,5178.93z
			 M2680.18,5169.5c-1.08-16.71-2.43-31.26-3.23-32.34c-0.54-1.35-16.98-2.16-36.11-2.16h-35.03l1.62,27.76
			c1.08,15.09,2.16,28.84,2.7,30.72c1.08,2.96,8.62,3.77,57.67,5.66l14.28,0.54L2680.18,5169.5z M2604.72,5174.89
			c-0.81-12.4-2.16-26.41-2.96-30.99l-1.35-8.89h-38.81h-38.81l1.35,19.67c2.16,30.99,3.5,36.92,8.62,37.19
			c2.43,0.27,19.13,1.35,36.92,2.43c17.79,0.81,33.42,1.89,34.5,2.16C2605.53,5196.72,2605.8,5187.02,2604.72,5174.89z"/>
	</g>
</g>
</svg>
