<?xml version="1.0" encoding="utf-8"?>
<!-- Generator: Adobe Illustrator 23.0.1, SVG Export Plug-In . SVG Version: 6.00 Build 0)  -->
<svg version="1.1" id="goalpost" xmlns="http://www.w3.org/2000/svg" xmlns:xlink="http://www.w3.org/1999/xlink" x="0px" y="0px"
	 viewBox="0 0 368 168.59" style="enable-background:new 0 0 368 168.59;" xml:space="preserve">
<style type="text/css">
	.st0{fill:#8B92E8;}
</style>
<g id="post">
	<g id="post_steps_1_">
		<g transform="translate(0.000000,640.000000) scale(0.100000,-0.100000)">
			<path d="M1906.2,6294.18c-959.42-137.14-1397.01-199.24-1605.75-227.43c-34.79-4.6-63.54-7.19-64.12-6.04
				c-0.86,2.87-1.44,2.87-50.6-6.9c-30.19-5.75-35.37-7.77-43.99-16.1c-5.75-5.46-11.21-14.95-13.8-23.86
				c-2.3-7.77-11.5-86.25-20.41-173.95c-17.25-173.66-25.02-249.85-74.46-736.89C14.95,4924.76,0,4775.54,0,4771.51
				c0-6.61,0.86-7.19,7.77-5.46c4.31,0.86,16.39,2.3,26.73,2.88s55.49,8.91,100.63,18.69c45.14,9.48,118.16,25.02,162.45,34.5
				c44.28,9.48,129.66,27.6,189.76,40.25c60.09,12.65,145.48,30.77,189.76,40.25c189.76,40.25,302.46,64.12,353.64,75.62
				l54.63,11.84h182.57c100.35-0.92,270.55-2.35,378.07-4.08c107.53-1.44,306.2-4.02,441.33-5.75
				c135.14-1.73,256.74-3.73,269.97-4.6l23.87-1.73l-1.73-13.23c-0.86-7.48-6.04-58.08-11.79-112.7
				c-5.46-54.63-10.92-106.66-11.79-115.58l-2.02-18.35h10.06c5.75,1.67,281.76,59.18,613.54,129.62
				c332.07,70.44,625.91,132.83,653.23,138.58l49.31,10.35v44.27c0.15,37.09-0.43,43.99-4.16,43.99c-3.73,0-4.31,15.52-4.31,123.35
				c0,122.77,0,123.35-7.19,148.07c-31.63,108.97-207.01,436.15-371.75,693.19c-73.89,115.29-128.23,189.47-164.16,223.68
				c-19.27,18.4-28.75,24.73-58.37,39.1c-62.96,31.06-137.43,52.04-253.87,71.88c-64.69,10.92-135.99,20.12-156.7,19.84
				C2650.85,6399.97,2311.87,6352.25,1906.2,6294.18z M2705.46,6267.67c206.56-30.33,327.01-57.51,352.47-78.96
				c57.22-49.2,267.21-392.52,458.04-749.28c54.93-102.13,62.37-119.59,66.37-152.49c3.14-28.04,5.15-216,2.01-219.15
				c-0.86-0.86-55.21-6.87-121.02-13.16l-119.3-11.46h-133.89h-134.18l1.43,38.08c0.86,20.59,2.29,38.62,3.43,39.77
				c0.86,1.15,20.02,2.87,42.63,4l40.63,2.01l-1.43-38.33c-1.15-25.18-0.57-36.34,1.15-32.61c1.43,3.14,2.87,20.31,2.87,38.05
				c0.29,23.17,1.43,32.61,4,33.47c1.72,0.57,21.17,1.72,42.92,2.29l41.8,1.43v-36.05c-1.74-29.76-1.46-33.47,0.25-20.59
				c1.43,8.59,10.36,36.34,10.36,36.34l0.27,19.04l29.48,1.64c16.1,0.82,36.84,2.19,46.13,2.72l16.65,1.09l-1.09-33.3
				c-0.55-24.02-0.27-30.03,1.64-22.11c1.37,6.01,2.46,21.01,2.46,33.57l0.29,25.03h12.55c7.01,0,25.1,0.86,39.69,2.01l27.14,1.72
				l-2.04-32.61c-1.16-18.03-1.16-31.75,0-30.62c1.16,1.15,3.2,14.87,4.38,30.9c1.16,16.02,2.92,29.76,3.79,30.33
				c0.88,0.86,22.17,2.58,47.27,4c25.39,1.43,46.68,3.43,47.86,4.58c0.88,1.15-20.13,0.86-46.98-0.29l-49.02-2.01v6.96
				c0,0,3.03,110.72,3.32,113.29c0.29,0.29,17.45,0.57,38.33,0.57c22.03,0,39.48,1.43,42.06,3.14c3.14,2.29-7.73,2.58-38.33,1.43
				l-42.63-1.43l1.72,19.17c0.86,10.58,3.43,44.63,5.15,75.53l3.72,59.94h10.87c6.01-3.29,10.87-1.86,10.87-0.44
				c0,1.72-10.3-10.18-10.3-10.18h-9.86l0.57,30.2c0.86,24.32-2.01,24.32-4.58,0.29l-2.01-19.87h-41.62h-41.36l1.71,19.4
				c3.13,36.51,7.99,163.13,6.28,167.41c-1.14,3.7-9.41,4.28-51.91,4.28h-49.62l1.72,46.76c1.15,25.54,2.58,57.09,3.45,70.3
				c1.72,22.38,2,23.53,8.61,23.53c3.73,0,6.88,1.43,6.88,2.87c0,1.72-3.16,2.87-7.17,2.87c-6.6,0-7.17,1.15-7.45,13.78
				c-0.29,14.63-1.15,13.77-4.02-2.87l-1.72-10.9l-39.31,1.72c-21.52,1.15-39.6,2-39.88,2.29s1.15,35.29,3.16,77.75
				c2.29,42.75,2.87,78.61,1.72,80.04c-1.43,1.43-21.52,4.31-44.76,6.6c-23.23,2-42.75,4.31-43.03,4.59s0.86,28.11,2.29,61.68
				c1.72,34.72,2,62.26,0.57,63.69c-1.43,1.15-20.66,4.31-42.75,6.88c-59.97,7.17-53.65,2.87-52.79,36.15
				c0.57,15.78,0,29.27-0.86,30.13c-0.86,0.86-2.29-11.76-3.45-27.83c-1.15-16.07-2.29-29.84-2.87-30.13
				c-0.86-0.86-39.6,3.45-58.81,6.6l-9.47,1.43l2,26.11c1.15,15.78,0.86,25.25-0.86,24.1c-1.43-0.86-3.45-12.05-4.31-24.68
				c-0.86-12.91-2-23.82-2.59-24.39c-1.15-1.15-82.63,8.9-84.06,10.61c-0.86,0.57,0,15.21,1.43,32.42
				c2.59,28.4,2.29,36.15-1.15,32.7c-0.86-0.57-2.29-15.78-3.45-33.86l-2-32.42l-7.45,1.43c-4.02,0.86-22.09,3.16-39.88,5.16
				l-32.13,3.45l1.15,8.9c3.45,21.52,4.88,59.68,2.29,57.95c-1.43-0.86-3.73-15.78-4.88-33.28c-2.29-36.72,3.16-33.86-48.48-26.97
				c-18.65,2.29-34.72,3.73-35.58,2.87c-2.58-2.59,5.16-4.31,43.6-8.61c20.37-2.59,37.29-4.88,37.58-5.16
				c0.86-2-9.76-129.39-11.19-130.82c-0.86-0.86-21.8,0.29-46.19,2.59c-24.39,2.29-44.47,3.16-44.47,2.29
				c0-2.29,12.33-4.02,58.81-8.61c17.21-1.43,31.84-3.16,32.13-3.45c0.57-0.57-12.33-170.42-13.2-173.58
				c-0.29-0.57-12.33-0.57-27.25,0c-35.86,1.15-37.87-2-2.87-4.31c15.49-1.15,28.4-2.59,28.98-3.16c0.57-0.57-1.43-35.58-4.59-77.75
				c-3.45-41.89-6.02-78.9-6.02-82.06c0-5.16-2.29-5.45-45.91-5.45c-27.83,0-45.91-1.15-45.91-2.87c0-1.72,18.37-3.16,45.33-3.45
				l45.05-0.86l-7.74-100.41c-4.31-55.09-7.75-101.85-7.75-103.57c-0.29-2-14.06-4.31-38.15-6.02l-38.15-2.87l39.29-2.85h37.73
				l-1.72-14.71c-0.86-9.15-3.43-42.35-6.01-73.81c-2.29-31.19-4.86-57.51-5.44-58.08s-20.59-2.01-44.06-2.87
				c-23.75-0.86-43.2-2.58-43.2-3.72c0-1.43,20.02-1.72,44.63-0.57l44.92,1.72l-1.72-9.72c-0.86-5.44-3.43-33.76-5.15-63.51
				c-2.01-29.47-4.58-55.21-6.01-57.22c-1.43-2.29-11.44-3.72-29.47-4.29c-15.16-0.57-27.18-2.29-27.18-4
				c0-1.72,10.58-2.01,29.18-0.57l28.9,2.01l-1.72-18.03c-1.15-10.01-2.01-23.75-1.29-30.33v-12.61h-56.49h-60.28v8.03
				c4.5,4.29,5.64,24.61,7.35,44.92c1.43,20.59,6.58,95.27,11.44,165.94c4.58,70.96,13.74,205.13,20.02,298.4
				c28.32,420.57,34.62,513.83,40.05,595.65c6.01,90.4,8.3,117.3,10.01,117.3C2665.4,6273.39,2683.7,6270.82,2705.46,6267.67z
				 M2510.2,6246.49c-0.86-6.01-9.15-88.68-18.6-183.96c-22.03-226.87-32.32-329.3-45.78-466.34
				c-6.01-62.08-15.16-153.63-20.02-203.13c-24.32-248.62-31.48-320.43-33.18-334.45l-2.01-15.45l-163.36,1.72
				c-89.83,1.15-381.07,2.01-647.44,2.01c-381.65,0-484.64,0.86-486.36,3.72c-1.15,1.72-2.87,52.93-3.72,113.58l-1.72,110.15
				l-8.86,22.89c-16.88,43.2-29.18,70.1-63.51,137.9c-108.43,214.86-278.65,492.37-341.88,557.6
				c-13.45,14.02-14.31,15.73-9.15,16.88c3.43,0.86,145.63,20.03,316.42,42.92c427.42,56.93,924.95,123.59,1248.81,167.37
				c149.63,20.03,274.08,36.62,276.94,36.91C2510.78,6257.08,2511.35,6255.36,2510.2,6246.49z M2818.84,6092.21l33.12-3.39v-13.03
				c-0.28-20.1-7.65-113.53-9.34-115.23c-0.57-0.85-18.12,0.28-38.5,1.99l-37.08,3.68v9.91c0,5.66,1.99,32.56,4.24,59.73
				c2.26,27.18,4.24,52.38,4.24,56.06c0,4.81,1.42,6.23,5.1,5.1C2783.17,6096.45,2800.44,6094.18,2818.84,6092.21z M2903.43,6082.57
				l40.91-4.86l-1.72-12.88c-0.86-7.44-3.14-34.62-4.86-60.93c-2.01-26.32-4.29-49.2-5.44-50.64c-1.72-3.14-78.1,2.58-81.54,6.01
				c-3.14,2.86,6.58,128.18,9.72,128.18C2861.37,6087.43,2880.83,6085.43,2903.43,6082.57z M2986.12,6072.84
				c15.16-2.01,28.9-4.29,30.04-5.44c1.72-1.43-2.87-123.59-4.86-124.74c-1.15-0.86-70.67,6.87-71.8,8.01
				c-0.86,0.57,0.86,29.18,3.43,63.23c4.58,56.93,5.44,62.08,10.3,62.08C2956.07,6075.99,2970.95,6074.56,2986.12,6072.84z
				 M3064.79,6063.11c19.17-2.29,38.91-4.86,43.48-5.72l8.59-1.43l-2.58-60.65c-1.15-33.47-2.58-61.22-2.87-61.51
				c-0.57-0.57-88.7,7.73-91.84,8.86c-2.87,0.86-0.29,103.57,3.14,118.44C3024.16,6068.55,3021.58,6068.55,3064.79,6063.11z
				 M527.69,5961.27c41.77-3.43,77.25-9.15,90.69-14.87c16.31-6.87,43.48-45.49,108.43-154.2
				c62.65-104.71,131.03-226.3,206.28-365.63c63.8-118.44,85.26-163.08,88.12-183.39c4.29-29.47,6.58-116.16,4.29-157.07
				l-2.01-38.62l-143.33-13.45c-78.96-7.44-268.93-25.47-421.7-40.05c-153.06-14.31-278.65-25.74-279.23-24.89
				c-0.57,0.57,2.58,54.08,6.87,118.44c4.29,64.66,10.58,155.92,13.74,203.13c3.43,47.21,10.58,153.35,16.02,236.03
				c5.72,82.69,13.45,196.55,17.17,253.2c4,56.65,8.01,118.15,9.15,136.75c1.15,21.17,2.87,34.62,4.86,35.19
				c2.01,0.86,25.18,4.58,51.78,8.3c44.63,6.3,54.93,6.87,121.59,5.44C460.46,5964.98,508.8,5962.97,527.69,5961.27z
				 M2817.31,5956.12c13.16-1.43,24.32-3.14,25.18-4c1.15-1.15-10.01-169.08-11.44-169.65c-2.01-0.86-76.39,3.72-77.53,5.15
				c-1.43,1.43,9.44,163.36,11.44,170.22c0.86,2.29,5.72,3.14,14.87,2.01C2787.27,5958.97,2804.15,5957.25,2817.31,5956.12z
				 M2907.15,5948.1l26.03-1.72l-1.72-17.45c-0.86-9.72-4-47.5-6.58-84.11l-5.15-66.66l-40.34,2.01
				c-22.03,0.86-40.63,2.29-41.49,2.58c-1.15,0.57,9.72,164.22,11.16,169.94c0.29,0.57,7.44,0.29,16.02-0.86
				C2873.96,5950.97,2892.85,5949.25,2907.15,5948.1z M2996.13,5939.52l16.88-1.72l-1.72-16.02c-0.86-8.86-2.29-32.61-3.14-53.22
				c-0.86-20.31-2.29-49.78-3.14-65.52l-1.72-28.32l-38.62,1.43c-20.88,0.86-38.91,2.01-39.48,2.86
				c-1.43,1.15,9.15,139.62,11.73,156.5l1.43,9.44l20.59-1.72C2970.37,5942.09,2986.97,5940.66,2996.13,5939.52z M3077.95,5931.8
				l32.61-3.14l-0.57-25.74c-0.29-14.02-1.72-47.5-3.14-74.38c-1.43-26.6-2.87-50.92-2.87-53.79c0-4.86-2.86-5.15-44.92-3.43
				c-24.89,1.15-46.64,2.29-48.07,2.86c-2.01,0.29-2.29,12.59-1.15,34.62c1.15,18.89,2.87,55.5,4,81.54l2.01,47.5l14.87-1.43
				C3038.75,5935.8,3059.93,5933.52,3077.95,5931.8z M3183.52,5922.36l17.74-1.72l-0.29-13.16c-0.29-7.16-1.72-42.06-3.43-77.25
				l-3.43-64.09l-25.75,0.57c-14.02,0.29-33.47,1.15-42.63,2.29l-16.88,1.72l2.01,44.63c0.86,24.61,2.58,59.8,3.72,78.67l1.72,33.76
				l24.61-1.72C3154.33,5924.93,3173.51,5923.49,3183.52,5922.36z M2830.42,5778.35c0.29,0-2.01-31.75-4.86-70.38
				c-2.86-38.62-5.15-74.96-5.44-80.68v-10.87h-41.49h-41.2l1.15,8.01c0.57,4.29,3.14,37.47,5.72,73.52
				c2.58,36.34,5.15,70.1,6.01,75.24l1.43,9.72l39.19-2.01C2812.39,5779.78,2830.42,5778.63,2830.42,5778.35z M2881.98,5776.63
				c15.73,0,30.62-1.15,32.9-2.58c3.14-2.01,2.86-14.31-2.29-76.39c-3.43-40.91-6.01-75.82-6.01-77.53c0-2.87-10.3-3.72-41.49-3.72
				h-41.77l1.72,13.74c2.01,17.45,10.01,130.46,10.01,141.61c0,8.02,0.57,8.3,8.86,6.58
				C2848.79,5777.49,2865.96,5776.63,2881.98,5776.63z M3003,5770.05c0.29-0.57-6.87-149.63-7.73-152.77
				c0-0.57-19.17-0.86-42.92-0.86h-42.63l1.15,8.01c0.86,4.29,3.14,34.04,5.72,66.37c2.29,32.33,5.15,64.37,6.01,71.24l1.72,12.59
				l38.91-2.01C2984.68,5771.48,3002.71,5770.33,3003,5770.05z M3092.25,5766.33l12.59-1.72l-1.72-24.61
				c-1.15-13.74-2.58-47.21-3.72-74.1l-2.01-49.49h-48.63h-48.64l1.72,32.33c1.15,17.45,2.87,52.36,3.72,77.25l2.01,44.92
				l36.05-1.43C3063.36,5768.61,3085.38,5767.18,3092.25,5766.33z M3165.2,5763.18l28.32-1.72l-2.01-50.35
				c-0.86-27.75-2.58-60.36-3.43-72.38l-2.01-22.31h-42.63h-42.92l1.72,13.74c0.86,7.44,2.29,38.62,3.14,69.24
				c1.15,30.62,2.58,58.08,3.14,60.93C3110.28,5765.76,3118.86,5766.33,3165.2,5763.18z M3249.11,5754.42h28.43l-1.66-55.75
				c-1.11-30.91-2.49-61.82-3.31-69l-1.66-13.25h-38.64h-38.92l1.94,44.99c0.83,24.57,2.49,56.3,3.58,70.65l1.66,25.66l9.93-1.66
				C3215.99,5755.25,3233.37,5754.42,3249.11,5754.42z M2818.71,5590.92c-0.29-23.17-12.59-187.68-14.02-189.11
				c-0.86-0.86-19.17-2.29-40.63-3.43l-39.48-2.01v8.01c0,4.58,3.14,49.49,7.16,99.85c4,50.35,7.16,93.84,7.16,96.7
				c0,4.29,3.72,4.86,40.05,4.86h40.05L2818.71,5590.92z M2904.58,5598.08c-0.29-4.58-4-49.78-8.3-100.99
				c-4-51.21-7.73-93.27-8.01-93.56c-2.01-2.01-78.96-4-78.96-2.01c0,1.43,3.14,46.35,7.16,99.85c4.01,53.5,7.16,98.99,7.16,100.99
				c0,2.58,10.01,3.43,40.91,3.43h41.2L2904.58,5598.08z M2994.41,5576.64c-1.15-16.31-3.43-60.93-5.15-99.57
				c-1.72-38.62-3.43-70.38-3.72-70.38c0-0.29-20.88-1.43-46.35-2.58l-45.78-2.01l0.86,9.72c2.01,20.88,15.16,184.25,15.16,189.11
				c0,4.29,4,4.86,43.2,4.86h43.48L2994.41,5576.64z M3095.97,5585.21c-0.57-11.44-2.58-55.5-4.29-98.13l-3.43-77.25l-48.35-2.29
				c-26.6-1.15-48.64-2.01-48.92-1.43c-0.57,0.86,9.15,196.84,9.72,199.12c0.29,0.29,21.74,0.57,48.35,0.57h47.78L3095.97,5585.21z
				 M3189.31,5602.37c0-2.01-1.93-39.77-4.13-83.82c-2.2-44.06-4.13-86.12-4.13-93.27v-13.16l-40.46-1.43
				c-22.57-0.86-41.01-1.15-41.55-0.86c-0.28,0.29,1.1,40.91,3.57,90.4c2.21,49.49,4.13,93.27,4.13,97.85v7.73h41.29
				C3179.13,5605.81,3189.31,5604.95,3189.31,5602.37z M3273.5,5553.73c-1.15-28.9-2.86-71.53-4-95.27l-1.72-42.91l-40.05-1.72
				c-22.03-1.15-40.91-1.15-41.77,0c-0.86,0.86,0,32.61,2.01,70.38c2.01,37.76,3.72,80.68,3.72,95.27l0.29,26.32h41.77h41.77
				L3273.5,5553.73z M3376.63,5579.48c-0.86-14.59-2.86-56.93-4.86-93.84l-3.14-67.23l-48.64-1.72c-26.6-0.86-48.92-1.43-49.2-1.15
				c-0.57,0.29,6.87,185.97,7.73,189.68c0,0.29,22.31,0.57,49.78,0.57h49.78L3376.63,5579.48z M3454.45,5400.23
				c-0.86-11.44-3.43-44.92-5.44-74.67c-2.01-29.47-4.29-54.08-4.86-54.64c-0.57-0.57-18.31-1.72-39.48-2.58l-38.33-1.72l2.01,46.35
				c0.86,25.47,2.58,59.51,3.72,75.53l1.72,29.18l24.61,1.15c13.45,0.29,32.04,1.15,41.2,1.43l16.59,0.57L3454.45,5400.23z
				 M3366.04,5368.51c-0.86-27.18-2.58-61.51-3.72-75.82l-1.72-26.6H3336c-13.45,0-35.48-0.86-48.63-2.01l-24.03-1.72l2.01,36.91
				c0.86,20.31,2.58,54.64,3.43,76.1l2.01,39.19l34.62,1.15c18.89,0.29,40.91,1.15,48.63,1.43l14.02,0.57L3366.04,5368.51z
				 M3265.7,5385.92c-0.29-39.48-4-119.01-5.72-120.45c-0.57-0.86-19.75-2.29-42.35-3.43l-41.2-2.01l1.72,36.62
				c1.15,20.31,2.87,54.64,3.72,76.1l2.01,39.19l33.19,1.15c18.31,0.29,36.62,1.15,41.2,1.43l7.73,0.57L3265.7,5385.92z
				 M3176.65,5391.64c-0.57-11.44-2.58-45.2-3.72-74.67c-1.43-29.76-3.14-54.36-3.72-54.64c-0.29-0.57-19.46-1.72-42.06-2.86
				l-41.2-2.01l2.01,49.49c0.86,27.18,2.58,61.22,3.43,75.82l2.01,26.32l36.05,1.15c19.75,0.29,38.91,1.15,42.35,1.43
				C3178.08,5412.25,3178.37,5411.68,3176.65,5391.64z M3086.82,5390.21c0-19.46-5.72-130.46-6.58-131.32
				c-0.29-0.29-22.31-1.43-48.92-2.58l-48.35-2.29l2.29,49.78c1.15,27.46,2.86,61.51,4,75.53l1.72,25.75l41.49,1.43
				c22.89,0.86,44.34,2.01,48.07,2.29C3086.53,5409.38,3086.82,5408.24,3086.82,5390.21z M2981.82,5331.15
				c-2.01-40.63-4-74.1-4.58-74.67c-0.57-0.29-22.6-1.72-48.92-2.86l-48.07-1.72l1.72,16.88c0.86,9.15,3.72,42.06,6.3,72.67
				c2.29,30.62,4.86,57.22,5.44,59.23c0.86,2.29,14.87,3.43,46.35,3.43l45.2,0.57L2981.82,5331.15z M2886.7,5391.14
				c-0.84-7.6-3.38-39.97-5.91-72.62l-4.79-59.11l-11.26-1.97c-6.19-1.12-23.64-1.97-38.84-1.97l-27.87-0.28l1.69,16.33
				c0.84,8.73,3.1,36.31,4.51,61.08c4.22,62.78,5.07,68.41,10.7,69.81c2.53,0.84,19.99,1.4,38.84,1.69l34.06,0.28L2886.7,5391.14z
				 M2802.85,5373.3c-0.84-11.22-3.08-44.02-5.05-72.63l-3.64-52.16l-18.23-1.97c-10.09-0.84-28.32-1.69-40.1-1.69h-21.87v7.86
				c0,12.06,8.69,133.47,10.09,137.4c0.56,2.53,11.22,3.36,40.66,3.36h39.82L2802.85,5373.3z M3444.16,5257.18
				c-0.29-24.32-7.44-108.14-9.15-110.15c-2.58-2.29-71.53-6.3-73.52-4c-0.86,0.86-0.29,28.04,1.43,60.36l2.87,58.65l35.76,1.43
				c19.75,0.86,37.47,2.01,39.48,2.29S3444.44,5262.91,3444.16,5257.18z M3360.32,5241.12c-0.86-13.16-2.58-40.63-3.43-61.22
				l-1.72-37.47l-34.62-2.01c-18.89-0.86-40.63-1.72-48.35-1.72h-14.02l1.43,28.04c0.86,15.16,2.58,42.91,3.43,61.22l1.72,33.76
				l44.63,0.86c24.89,0.29,46.64,1.15,48.92,1.43C3361.47,5264.58,3361.76,5260.01,3360.32,5241.12z M3257.04,5197.67
				c-1.43-40.63-3.14-60.93-5.44-61.51c-1.72-0.57-20.88-1.72-42.92-2.58l-39.48-1.72l1.72,52.36c1.15,28.61,2.58,56.93,3.43,62.65
				l1.72,10.58l40.34,0.86c22.31,0.57,41.2,0.57,41.77,0.29C3258.76,5258.32,3258.19,5230.86,3257.04,5197.67z M3168.64,5219.15
				c-4.29-83.54-4.58-86.69-11.44-86.98c-3.14,0-22.03-1.15-41.49-2.01l-35.19-2.01l2.01,61.51c1.15,33.76,2.58,62.37,3.43,63.8
				c0.57,1.15,20.03,2.01,42.92,2.01h41.49L3168.64,5219.15z M3079.95,5229.73c-0.86-14.59-2.29-42.92-3.43-62.65l-1.72-36.34
				l-48.63-2.01c-26.6-1.15-48.64-1.72-49.2-1.15c-0.29,0.57,0.57,29.18,2.01,63.23l2.87,62.08l10.3,1.15
				c5.72,0.57,28.04,1.15,50.06,1.43l39.48,0.57L3079.95,5229.73z M2976.38,5213.41c-0.86-17.74-2.58-46.35-3.72-63.8l-1.72-31.48
				l-49.49-2.58c-27.18-1.15-50.06-1.72-50.64-1.43c-0.86,1.15,5.44,85.83,8.58,113.29l1.72,14.87l13.45,1.15
				c7.44,0.57,29.18,1.15,48.63,1.43l35.19,0.57L2976.38,5213.41z M2873.23,5227.14c-1.15-10.87-3.43-39.77-5.15-64.37l-3.43-44.92
				l-11.73-1.43c-6.58-0.86-23.75-2.01-38.05-2.58l-26.6-1.15v10.3c0,5.72,2.01,34.04,4.29,63.23c2.29,29.18,4.29,53.79,4.29,54.93
				c0,2.29,17.74,4,52.64,4.58l25.47,0.57L2873.23,5227.14z M2788.27,5234.3c0-11.44-8.3-120.45-9.44-121.31
				c-0.29-0.29-19.17-1.43-41.77-2.58l-41.2-2.01l1.72,18.03c1.15,10.01,3.43,39.77,5.15,66.08l3.43,47.78l11.73,1.15
				c6.58,0.57,24.89,1.15,41.2,1.43l29.18,0.57L2788.27,5234.3L2788.27,5234.3z M3076.91,5104.1c-1.15-10.87-2.01-28.9-2.01-40.05
				v-20.88h-50.35h-50.35l2.29,36.62c0.86,20.02,2.01,36.62,2.58,36.91c0.29,0.57,57.51,4.58,91.26,6.3l8.3,0.29L3076.91,5104.1z
				 M2970.37,5089.79c-0.57-15.45-1.72-32.33-2.58-37.19l-1.43-9.44h-51.78h-51.5l1.72,15.16c0.86,8.01,2.29,23.46,3.43,34.33
				c1.72,16.88,2.58,19.17,8.01,19.46c3.14,0.29,20.31,1.43,37.47,2.58c17.45,0.86,37.47,2.01,44.63,2.29l13.16,0.57
				L2970.37,5089.79z M2862.23,5079.79c-1.15-17.74-2.58-33.18-3.43-34.33c-0.57-1.43-18.03-2.29-38.33-2.29h-37.19l1.72,29.47
				c1.15,16.02,2.29,30.62,2.87,32.61c1.15,3.14,9.15,4,61.22,6.01l15.16,0.57L2862.23,5079.79z M2782.12,5085.5
				c-0.86-13.16-2.29-28.04-3.14-32.9l-1.43-9.44h-41.2h-41.2l1.43,20.88c2.29,32.9,3.72,39.19,9.15,39.48
				c2.58,0.29,20.31,1.43,39.19,2.58c18.89,0.86,35.48,2.01,36.62,2.29C2782.98,5108.67,2783.27,5098.37,2782.12,5085.5z"/>
		</g>
	</g>
	
		<rect id="inner_box" x="116" y="42.59" transform="matrix(0.9967 -0.0808 0.0808 0.9967 -4.8901 14.3179)" class="st0" width="117" height="50"/>
</g>
</svg>
