<?xml version="1.0" encoding="utf-8"?>
<!-- Generator: Adobe Illustrator 23.0.1, SVG Export Plug-In . SVG Version: 6.00 Build 0)  -->
<svg version="1.1" id="soccerfans" xmlns="http://www.w3.org/2000/svg" xmlns:xlink="http://www.w3.org/1999/xlink" x="0px" y="0px"
	 viewBox="0 0 460.34 464.49" style="enable-background:new 0 0 460.34 464.49;" xml:space="preserve">
<g id="steps">
	<path d="M99.85,378.23c0,15.91-13.01,28.92-28.92,28.92c-15.91,0-28.92-12.68-28.92-28.6c0-15.91,12.9-29.25,28.81-29.25
		C86.73,349.31,99.85,362.32,99.85,378.23z"/>
	<g>
		<path d="M106.65,422.36c-0.41-2.32-1.75-4.23-3.56-5.44c-1.8-1.51-4.12-2.43-6.65-2.43H44.96c-2.1,0-4.05,0.63-5.68,1.71
			c-2.48,1.06-4.39,3.31-4.89,6.16l-7.72,42.13h87.7L106.65,422.36z"/>
	</g>
	<path d="M0.35,333.44c-1.38-4.88,1.46-9.96,6.34-11.34l0,0c4.88-1.38,9.96,1.46,11.34,6.34l30.19,109.17
		c1.38,4.88-1.46,9.96-6.34,11.34l0,0c-4.88,1.38-9.96-1.46-11.34-6.34L0.35,333.44z"/>
	<path d="M140.82,333.44c1.38-4.88-1.46-9.96-6.34-11.34l0,0c-4.88-1.38-9.96,1.46-11.34,6.34L92.95,437.61
		c-1.38,4.88,1.46,9.96,6.34,11.34l0,0c4.88,1.38,9.96-1.46,11.34-6.34L140.82,333.44z"/>
	<path d="M259.03,378.23c0,15.91-13.01,28.92-28.92,28.92s-28.92-12.68-28.92-28.6c0-15.91,12.9-29.25,28.81-29.25
		C245.91,349.31,259.03,362.32,259.03,378.23z"/>
	<g>
		<path d="M265.82,422.36c-0.41-2.32-1.75-4.23-3.56-5.44c-1.8-1.51-4.11-2.43-6.65-2.43h-51.47c-2.1,0-4.05,0.63-5.68,1.71
			c-2.48,1.06-4.39,3.31-4.89,6.16l-7.72,42.13h87.7L265.82,422.36z"/>
	</g>
	<path d="M159.52,333.44c-1.38-4.88,1.46-9.96,6.34-11.34l0,0c4.88-1.38,9.96,1.46,11.34,6.34l30.19,109.17
		c1.38,4.88-1.46,9.96-6.34,11.34l0,0c-4.88,1.38-9.96-1.46-11.34-6.34L159.52,333.44z"/>
	<path d="M299.99,333.44c1.38-4.88-1.46-9.96-6.34-11.34l0,0c-4.88-1.38-9.96,1.46-11.34,6.34l-30.19,109.17
		c-1.38,4.88,1.46,9.96,6.34,11.34l0,0c4.88,1.38,9.96-1.46,11.34-6.34L299.99,333.44z"/>
	<path d="M419.03,378.23c0,15.91-13.01,28.92-28.92,28.92s-28.92-12.68-28.92-28.6c0-15.91,12.9-29.25,28.81-29.25
		C405.91,349.31,419.03,362.32,419.03,378.23z"/>
	<g>
		<path d="M425.82,422.36c-0.41-2.32-1.75-4.23-3.56-5.44c-1.8-1.51-4.11-2.43-6.65-2.43h-51.47c-2.1,0-4.05,0.63-5.68,1.71
			c-2.48,1.06-4.39,3.31-4.89,6.16l-7.72,42.13h87.7L425.82,422.36z"/>
	</g>
	<path d="M319.52,333.44c-1.38-4.88,1.46-9.96,6.34-11.34l0,0c4.88-1.38,9.96,1.46,11.34,6.34l30.19,109.17
		c1.38,4.88-1.46,9.96-6.34,11.34l0,0c-4.88,1.38-9.96-1.46-11.34-6.34L319.52,333.44z"/>
	<path d="M459.99,333.44c1.38-4.88-1.46-9.96-6.34-11.34l0,0c-4.88-1.38-9.96,1.46-11.34,6.34l-30.19,109.17
		c-1.38,4.88,1.46,9.96,6.34,11.34l0,0c4.88,1.38,9.96-1.46,11.34-6.34L459.99,333.44z"/>
	<path d="M99.85,216.48c0,15.91-13.01,28.92-28.92,28.92c-15.91,0-28.92-12.68-28.92-28.6c0-15.91,12.9-29.25,28.81-29.25
		C86.73,187.56,99.85,200.57,99.85,216.48z"/>
	<g>
		<path d="M106.65,261.36c-0.41-2.32-1.75-4.23-3.56-5.44c-1.8-1.51-4.12-2.43-6.65-2.43H44.96c-2.1,0-4.05,0.63-5.68,1.71
			c-2.48,1.06-4.39,3.31-4.89,6.16l-7.72,42.13h87.7L106.65,261.36z"/>
	</g>
	<path d="M0.35,171.69c-1.38-4.88,1.46-9.96,6.34-11.34l0,0c4.88-1.38,9.96,1.46,11.34,6.34l30.19,109.17
		c1.38,4.88-1.46,9.96-6.34,11.34l0,0c-4.88,1.38-9.96-1.46-11.34-6.34L0.35,171.69z"/>
	<path d="M140.82,171.69c1.38-4.88-1.46-9.96-6.34-11.34l0,0c-4.88-1.38-9.96,1.46-11.34,6.34L92.95,275.86
		c-1.38,4.88,1.46,9.96,6.34,11.34l0,0c4.88,1.38,9.96-1.46,11.34-6.34L140.82,171.69z"/>
	<path d="M259.03,216.48c0,15.91-13.01,28.92-28.92,28.92s-28.92-12.68-28.92-28.6c0-15.91,12.9-29.25,28.81-29.25
		C245.91,187.56,259.03,200.57,259.03,216.48z"/>
	<g>
		<path d="M265.82,261.36c-0.41-2.32-1.75-4.23-3.56-5.44c-1.8-1.51-4.11-2.43-6.65-2.43h-51.47c-2.1,0-4.05,0.63-5.68,1.71
			c-2.48,1.06-4.39,3.31-4.89,6.16l-7.72,42.13h87.7L265.82,261.36z"/>
	</g>
	<path d="M159.52,171.69c-1.38-4.88,1.46-9.96,6.34-11.34l0,0c4.88-1.38,9.96,1.46,11.34,6.34l30.19,109.17
		c1.38,4.88-1.46,9.96-6.34,11.34l0,0c-4.88,1.38-9.96-1.46-11.34-6.34L159.52,171.69z"/>
	<path d="M299.99,171.69c1.38-4.88-1.46-9.96-6.34-11.34l0,0c-4.88-1.38-9.96,1.46-11.34,6.34l-30.19,109.17
		c-1.38,4.88,1.46,9.96,6.34,11.34l0,0c4.88,1.38,9.96-1.46,11.34-6.34L299.99,171.69z"/>
	<path d="M419.03,216.48c0,15.91-13.01,28.92-28.92,28.92s-28.92-12.68-28.92-28.6c0-15.91,12.9-29.25,28.81-29.25
		C405.91,187.56,419.03,200.57,419.03,216.48z"/>
	<g>
		<path d="M425.82,261.36c-0.41-2.32-1.75-4.23-3.56-5.44c-1.8-1.51-4.11-2.43-6.65-2.43h-51.47c-2.1,0-4.05,0.63-5.68,1.71
			c-2.48,1.06-4.39,3.31-4.89,6.16l-7.72,42.13h87.7L425.82,261.36z"/>
	</g>
	<path d="M319.52,171.69c-1.38-4.88,1.46-9.96,6.34-11.34l0,0c4.88-1.38,9.96,1.46,11.34,6.34l30.19,109.17
		c1.38,4.88-1.46,9.96-6.34,11.34l0,0c-4.88,1.38-9.96-1.46-11.34-6.34L319.52,171.69z"/>
	<path d="M459.99,171.69c1.38-4.88-1.46-9.96-6.34-11.34l0,0c-4.88-1.38-9.96,1.46-11.34,6.34l-30.19,109.17
		c-1.38,4.88,1.46,9.96,6.34,11.34l0,0c4.88,1.38,9.96-1.46,11.34-6.34L459.99,171.69z"/>
	<path d="M99.85,56.48c0,15.91-13.01,28.92-28.92,28.92c-15.91,0-28.92-12.68-28.92-28.6c0-15.91,12.9-29.25,28.81-29.25
		C86.73,27.56,99.85,40.57,99.85,56.48z"/>
	<g>
		<path d="M106.65,101.36c-0.41-2.32-1.75-4.23-3.56-5.44c-1.8-1.51-4.12-2.43-6.65-2.43H44.96c-2.1,0-4.05,0.63-5.68,1.71
			c-2.48,1.06-4.39,3.31-4.89,6.16l-7.72,42.13h87.7L106.65,101.36z"/>
	</g>
	<path d="M0.35,11.69C-1.03,6.81,1.81,1.73,6.69,0.35l0,0c4.88-1.38,9.96,1.46,11.34,6.34l30.19,109.17
		c1.38,4.88-1.46,9.96-6.34,11.34l0,0c-4.88,1.38-9.96-1.46-11.34-6.34L0.35,11.69z"/>
	<path d="M140.82,11.69c1.38-4.88-1.46-9.96-6.34-11.34l0,0c-4.88-1.38-9.96,1.46-11.34,6.34L92.95,115.86
		c-1.38,4.88,1.46,9.96,6.34,11.34l0,0c4.88,1.38,9.96-1.46,11.34-6.34L140.82,11.69z"/>
	<path d="M259.03,56.48c0,15.91-13.01,28.92-28.92,28.92s-28.92-12.68-28.92-28.6c0-15.91,12.9-29.25,28.81-29.25
		C245.91,27.56,259.03,40.57,259.03,56.48z"/>
	<g>
		<path d="M265.82,101.36c-0.41-2.32-1.75-4.23-3.56-5.44c-1.8-1.51-4.11-2.43-6.65-2.43h-51.47c-2.1,0-4.05,0.63-5.68,1.71
			c-2.48,1.06-4.39,3.31-4.89,6.16l-7.72,42.13h87.7L265.82,101.36z"/>
	</g>
	<path d="M159.52,11.69c-1.38-4.88,1.46-9.96,6.34-11.34l0,0c4.88-1.38,9.96,1.46,11.34,6.34l30.19,109.17
		c1.38,4.88-1.46,9.96-6.34,11.34l0,0c-4.88,1.38-9.96-1.46-11.34-6.34L159.52,11.69z"/>
	<path d="M299.99,11.69c1.38-4.88-1.46-9.96-6.34-11.34l0,0c-4.88-1.38-9.96,1.46-11.34,6.34l-30.19,109.17
		c-1.38,4.88,1.46,9.96,6.34,11.34l0,0c4.88,1.38,9.96-1.46,11.34-6.34L299.99,11.69z"/>
	<path d="M419.03,56.48c0,15.91-13.01,28.92-28.92,28.92s-28.92-12.68-28.92-28.6c0-15.91,12.9-29.25,28.81-29.25
		C405.91,27.56,419.03,40.57,419.03,56.48z"/>
	<g>
		<path d="M425.82,101.36c-0.41-2.32-1.75-4.23-3.56-5.44c-1.8-1.51-4.11-2.43-6.65-2.43h-51.47c-2.1,0-4.05,0.63-5.68,1.71
			c-2.48,1.06-4.39,3.31-4.89,6.16l-7.72,42.13h87.7L425.82,101.36z"/>
	</g>
	<path d="M319.52,11.69c-1.38-4.88,1.46-9.96,6.34-11.34l0,0c4.88-1.38,9.96,1.46,11.34,6.34l30.19,109.17
		c1.38,4.88-1.46,9.96-6.34,11.34l0,0c-4.88,1.38-9.96-1.46-11.34-6.34L319.52,11.69z"/>
	<path d="M459.99,11.69c1.38-4.88-1.46-9.96-6.34-11.34l0,0c-4.88-1.38-9.96,1.46-11.34,6.34l-30.19,109.17
		c-1.38,4.88,1.46,9.96,6.34,11.34l0,0c4.88,1.38,9.96-1.46,11.34-6.34L459.99,11.69z"/>
</g>
</svg>
