<?xml version="1.0" encoding="utf-8"?>
<!-- Generator: Adobe Illustrator 23.0.1, SVG Export Plug-In . SVG Version: 6.00 Build 0)  -->
<svg version="1.1" id="soccerboot" xmlns="http://www.w3.org/2000/svg" xmlns:xlink="http://www.w3.org/1999/xlink" x="0px" y="0px"
	 viewBox="0 0 389.99 177.83" style="enable-background:new 0 0 389.99 177.83;" xml:space="preserve">
<style type="text/css">
	.st0{fill:#0000FF;}
</style>
<g id="boot_outline">
	<defs>
		
		<script>let soccerBoot = document.querySelector(&quot;button&quot;);

		function logsoccerBoot() {

			console.log(this.id);

		}

 
		soccerBoot.addEventListener(&quot;Select Icon&quot;, logsoccerBoot);
			</script>
	</defs>
	<g id="steps_1_">
		<g>
			<g>
				<path d="M11.88,132.26c0.99,2.5,3.45,4.65,6.15,5.81c-2.09,1.1-3.54,3.19-3.54,5.76v8.1c0,3.82,3.09,7.01,6.91,7.11
					c1.28,0.04,2.72,0.07,4.29,0.12c3.82,0.11,6.92,1.23,6.92,2.51v2.36c0,3.94,3.31,7.1,7.3,6.87c3.68-0.22,6.47-3.45,6.47-7.14
					c0,0,0-0.68,0-1.88c0-1.2,3.15-2.08,7.05-1.98c1.8,0.05,3.62,0.1,5.46,0.14c3.89,0.11,7.06,1.04,7.06,2.09v1.88
					c0,3.94,3.31,7.1,7.3,6.87c3.68-0.22,6.47-3.45,6.47-7.14c0,0,0-0.5,0-1.44c0-0.93,3.1-1.59,6.92-1.49
					c8.57,0.22,16.76,0.44,23.78,0.62c29.28,0.75,65.61,2.99,103.73,4.05c3.82,0.11,6.92,1.36,6.92,2.81v2.44
					c0,3.45,2.45,6.54,5.87,7.03c4.26,0.61,7.9-2.68,7.9-6.81c0,0,0-1.15,0-2.54c0-1.4,3.11-2.49,6.96-2.44
					c2.12,0.02,4.25,0.04,6.37,0.04c3.85,0.01,6.97,1.11,6.97,2.46v2.47c0,3.94,3.3,7.1,7.3,6.87c3.69-0.21,6.47-3.45,6.47-7.14
					c0,0,0-0.88,0-2.3c0-1.41,3.11-2.6,6.94-2.7c12.72-0.34,25.31-0.98,37.62-2c3.82-0.31,6.91,0.37,6.91,1.57v2
					c0,3.45,2.45,6.54,5.87,7.03c4.26,0.61,7.9-2.68,7.9-6.81c0,0,0-1.33,0-2.98c0-1.65,3.09-3.36,6.9-3.91
					c5.18-0.74,10.27-1.57,15.26-2.49c3.78-0.7,6.84,0.29,6.84,2.31v3.67c0,3.94,3.31,7.1,7.3,6.87c3.68-0.22,6.47-3.45,6.47-7.14
					c0,0,0-2.16,0-5.09s2.92-6.05,6.51-7.04c3.6-0.99,6.47-4.49,6.47-7.66c0-2.2-1.47-3.56-3.57-3.91c2.17-1.59,3.7-4.07,3.67-6.51
					c-0.04-3.04-0.07-6.09-0.07-6.26c0-19.3-21.97-24.57-54.94-32.49l-4.36-1.05c-5.27-1.27-14.94-3.41-29.39-7.68
					c-3.67-1.09-7.81,0.86-9.26,4.39l-4.65,11.26c-1.07,2.65-4.11,3.9-6.74,2.81c-2.66-1.07-3.91-4.11-2.83-6.76l4.31-10.51
					c1.45-3.54-0.32-7.38-3.92-8.65c-0.62-0.22-1.25-0.43-1.86-0.66c-3.61-1.28-7.85,0.49-9.48,3.96l-5.36,11.39
					c-1.21,2.59-4.29,3.7-6.89,2.49c-2.59-1.2-3.7-4.28-2.48-6.87l4.94-10.6c1.61-3.47,0.01-7.37-3.55-8.76
					c-0.07-0.03-0.14-0.06-0.21-0.08c-3.57-1.39-7.95,0.14-9.83,3.48l-6.55,11.72c-1.51,2.44-4.7,3.22-7.14,1.73
					c-2.44-1.49-3.2-4.69-1.72-7.12l5.81-10.44c1.86-3.34,0.52-7.31-2.92-8.98c-0.34-0.16-0.67-0.32-1.01-0.49
					c-3.44-1.68-7.9-0.52-9.99,2.69l-7.92,12.11c-1.65,2.33-4.9,2.88-7.23,1.22s-2.88-4.89-1.22-7.22l7.19-11.06
					c2.09-3.21,1.07-7.33-2.17-9.35c-0.25-0.16-0.49-0.3-0.74-0.46c-3.24-2.03-7.7-1.38-10.06,1.64l-9,11.46
					c-1.8,2.23-5.05,2.59-7.29,0.81c-2.23-1.78-2.59-5.05-0.8-7.28l8.85-11.28c2.36-3.01,3.67-5.94,2.95-6.57
					c-0.43-0.38-0.87-0.76-1.3-1.15c-2.13-1.94-4.2-3.77-6.23-5.55c-5.57-4.16-16.58-6.97-29.68,0.43
					c-12.52,7.07-40.74,15.64-64.77,8.35c-16.61-5.18-29.12-14.68-35.45-27.39C51.72,4.27,49.14,0.35,44.06,0.04
					C37.5-0.39,33.25,2.83,19.23,19.65c-2.84,3.42-5.52,7.02-8.11,11.39c-1.95,3.29-0.91,8.09,2.15,10.37
					c35.28,26.27,89.92,41.78,156.13,54.4c55.99,10.67,84.15,38.84,94.08,51.09c1.1,1.36,2.74,2.63,4.52,3.65
					c-2.07-0.17-3.76-0.39-4.31-0.56c-0.54-0.16-1.09-0.25-1.68-0.25c-0.56,0-1.09,0.08-1.61,0.23c-0.86,0.24-4.62,0.53-8.44,0.4
					c-10.42-0.34-20.76-0.89-31.07-1.49c0.43-0.94,0.2-2.21-0.94-3.63c-24.48-30.53-69.37-40.32-121.32-54.6
					C53.33,78.19,24.38,60.53,9.82,49.86c-3.09-2.24-6.28-1.88-7.01,1.03c-0.73,2.91,0.96,7.58,3.82,10.13
					c28.24,25.25,83.94,44.46,121.35,53.81c28.36,7.1,45.38,20.65,53.29,28.49c1.22,1.21,2.96,2.39,4.8,3.37
					c-1.5-0.1-3.04-0.2-4.53-0.3l-29.84-2c-5.78-0.36-11.44-0.71-17.02-1.04c0.46-0.94,0.22-2.23-1-3.61
					c-12.16-13.75-35.05-23.16-64.82-34.49c-23.82-9.07-47.69-23.88-63.1-37.05c-2.91-2.49-5.43-1.94-5.6,1.41
					C0.06,71.53,0,73.54,0,75.65c0,2.67,0.07,5.47,0.24,8.41C1.28,102.7,7.81,121.89,11.88,132.26z"/>
			</g>
		</g>
		<g>
		</g>
		<g>
		</g>
		<g>
		</g>
		<g>
		</g>
		<g>
		</g>
		<g>
		</g>
		<g>
		</g>
		<g>
		</g>
		<g>
		</g>
		<g>
		</g>
		<g>
		</g>
		<g>
		</g>
		<g>
		</g>
		<g>
		</g>
		<g>
		</g>
	</g>
</g>
<g id="blue_dots">
	<circle id="dot_4_" class="st0" cx="184.49" cy="109.6" r="3.5"/>
	<circle id="dot_3_" class="st0" cx="213.49" cy="123.6" r="4.5"/>
	<circle id="dot_2_" class="st0" cx="235.99" cy="141.1" r="3"/>
	<circle id="dot_1_" class="st0" cx="122.49" cy="120.6" r="3.5"/>
	<circle id="dot" class="st0" cx="150.99" cy="136.1" r="4"/>
</g>
</svg>
