<?xml version="1.0" encoding="utf-8"?>
<!-- Generator: Adobe Illustrator 23.0.1, SVG Export Plug-In . SVG Version: 6.00 Build 0)  -->
<svg version="1.1" id="soccerfans" xmlns="http://www.w3.org/2000/svg" xmlns:xlink="http://www.w3.org/1999/xlink" x="0px" y="0px"
	 viewBox="0 0 331.04 333.67" style="enable-background:new 0 0 331.04 333.67;" xml:space="preserve">
<style type="text/css">
	.st0{fill:#FF00FF;}
	.st1{fill:#0000FF;}
	.st2{fill:#FF0000;}
</style>
<g id="fan_outline">
	<g id="steps_1_">
		<path d="M71.8,271.99c0,11.44-9.36,20.8-20.8,20.8s-20.8-9.12-20.8-20.57c0-11.44,9.28-21.03,20.72-21.03
			C62.37,251.2,71.8,260.55,71.8,271.99z"/>
		<g>
			<path d="M76.69,303.38c-0.29-1.67-1.26-3.04-2.56-3.91c-1.29-1.09-2.96-1.75-4.78-1.75H32.33c-1.51,0-2.91,0.45-4.08,1.23
				c-1.78,0.76-3.16,2.38-3.52,4.43l-5.55,30.3h63.07L76.69,303.38z"/>
		</g>
		<path d="M0.25,239.78c-0.99-3.51,1.05-7.16,4.56-8.15l0,0c3.51-0.99,7.16,1.05,8.15,4.56l21.71,78.51
			c0.99,3.51-1.05,7.16-4.56,8.15l0,0c-3.51,0.99-7.16-1.05-8.15-4.56L0.25,239.78z"/>
		<path d="M101.27,239.78c0.99-3.51-1.05-7.16-4.56-8.15l0,0c-3.51-0.99-7.16,1.05-8.15,4.56l-21.71,78.51
			c-0.99,3.51,1.05,7.16,4.56,8.15l0,0c3.51,0.99,7.16-1.05,8.15-4.56L101.27,239.78z"/>
		<path d="M186.27,271.99c0,11.44-9.36,20.8-20.8,20.8s-20.8-9.12-20.8-20.57c0-11.44,9.28-21.03,20.72-21.03
			C176.84,251.2,186.27,260.55,186.27,271.99z"/>
		<g>
			<path d="M191.16,303.38c-0.29-1.67-1.26-3.04-2.56-3.91c-1.29-1.09-2.96-1.75-4.78-1.75H146.8c-1.51,0-2.91,0.45-4.08,1.23
				c-1.78,0.76-3.16,2.38-3.52,4.43l-5.55,30.3h63.07L191.16,303.38z"/>
		</g>
		<path d="M114.71,239.78c-0.99-3.51,1.05-7.16,4.56-8.15l0,0c3.51-0.99,7.16,1.05,8.15,4.56l21.71,78.51
			c0.99,3.51-1.05,7.16-4.56,8.15l0,0c-3.51,0.99-7.16-1.05-8.15-4.56L114.71,239.78z"/>
		<path d="M215.73,239.78c0.99-3.51-1.05-7.16-4.56-8.15l0,0c-3.51-0.99-7.16,1.05-8.15,4.56l-21.71,78.51
			c-0.99,3.51,1.05,7.16,4.56,8.15l0,0c3.51,0.99,7.16-1.05,8.15-4.56L215.73,239.78z"/>
		<path d="M301.33,271.99c0,11.44-9.36,20.8-20.8,20.8c-11.44,0-20.8-9.12-20.8-20.57c0-11.44,9.28-21.03,20.72-21.03
			C291.9,251.2,301.33,260.55,301.33,271.99z"/>
		<g>
			<path d="M306.22,303.38c-0.29-1.67-1.26-3.04-2.56-3.91c-1.29-1.09-2.96-1.75-4.78-1.75h-37.01c-1.51,0-2.91,0.45-4.08,1.23
				c-1.78,0.76-3.16,2.38-3.52,4.43l-5.55,30.3h63.07L306.22,303.38z"/>
		</g>
		<path d="M229.77,239.78c-0.99-3.51,1.05-7.16,4.56-8.15l0,0c3.51-0.99,7.16,1.05,8.15,4.56l21.71,78.51
			c0.99,3.51-1.05,7.16-4.56,8.15l0,0c-3.51,0.99-7.16-1.05-8.15-4.56L229.77,239.78z"/>
		<path d="M330.79,239.78c0.99-3.51-1.05-7.16-4.56-8.15l0,0c-3.51-0.99-7.16,1.05-8.15,4.56l-21.71,78.51
			c-0.99,3.51,1.05,7.16,4.56,8.15l0,0c3.51,0.99,7.16-1.05,8.15-4.56L330.79,239.78z"/>
		<path d="M71.8,155.68c0,11.44-9.36,20.8-20.8,20.8s-20.8-9.12-20.8-20.57c0-11.44,9.28-21.03,20.72-21.03
			C62.37,134.88,71.8,144.23,71.8,155.68z"/>
		<g>
			<path d="M76.69,187.6c-0.29-1.67-1.26-3.04-2.56-3.91c-1.29-1.09-2.96-1.75-4.78-1.75H32.33c-1.51,0-2.91,0.45-4.08,1.23
				c-1.78,0.76-3.16,2.38-3.52,4.43l-5.55,30.3h63.07L76.69,187.6z"/>
		</g>
		<path d="M0.25,123.47c-0.99-3.51,1.05-7.16,4.56-8.15l0,0c3.51-0.99,7.16,1.05,8.15,4.56l21.71,78.51
			c0.99,3.51-1.05,7.16-4.56,8.15l0,0c-3.51,0.99-7.16-1.05-8.15-4.56L0.25,123.47z"/>
		<path d="M101.27,123.47c0.99-3.51-1.05-7.16-4.56-8.15l0,0c-3.51-0.99-7.16,1.05-8.15,4.56l-21.71,78.51
			c-0.99,3.51,1.05,7.16,4.56,8.15l0,0c3.51,0.99,7.16-1.05,8.15-4.56L101.27,123.47z"/>
		<path d="M186.27,155.68c0,11.44-9.36,20.8-20.8,20.8s-20.8-9.12-20.8-20.57c0-11.44,9.28-21.03,20.72-21.03
			C176.84,134.88,186.27,144.23,186.27,155.68z"/>
		<g>
			<path d="M191.16,187.6c-0.29-1.67-1.26-3.04-2.56-3.91c-1.29-1.09-2.96-1.75-4.78-1.75H146.8c-1.51,0-2.91,0.45-4.08,1.23
				c-1.78,0.76-3.16,2.38-3.52,4.43l-5.55,30.3h63.07L191.16,187.6z"/>
		</g>
		<path d="M114.71,123.47c-0.99-3.51,1.05-7.16,4.56-8.15l0,0c3.51-0.99,7.16,1.05,8.15,4.56l21.71,78.51
			c0.99,3.51-1.05,7.16-4.56,8.15l0,0c-3.51,0.99-7.16-1.05-8.15-4.56L114.71,123.47z"/>
		<path d="M215.73,123.47c0.99-3.51-1.05-7.16-4.56-8.15l0,0c-3.51-0.99-7.16,1.05-8.15,4.56l-21.71,78.51
			c-0.99,3.51,1.05,7.16,4.56,8.15l0,0c3.51,0.99,7.16-1.05,8.15-4.56L215.73,123.47z"/>
		<path d="M301.33,155.68c0,11.44-9.36,20.8-20.8,20.8c-11.44,0-20.8-9.12-20.8-20.57c0-11.44,9.28-21.03,20.72-21.03
			C291.9,134.88,301.33,144.23,301.33,155.68z"/>
		<g>
			<path d="M306.22,187.6c-0.29-1.67-1.26-3.04-2.56-3.91c-1.29-1.09-2.96-1.75-4.78-1.75h-37.01c-1.51,0-2.91,0.45-4.08,1.23
				c-1.78,0.76-3.16,2.38-3.52,4.43l-5.55,30.3h63.07L306.22,187.6z"/>
		</g>
		<path d="M229.77,123.47c-0.99-3.51,1.05-7.16,4.56-8.15l0,0c3.51-0.99,7.16,1.05,8.15,4.56l21.71,78.51
			c0.99,3.51-1.05,7.16-4.56,8.15l0,0c-3.51,0.99-7.16-1.05-8.15-4.56L229.77,123.47z"/>
		<path d="M330.79,123.47c0.99-3.51-1.05-7.16-4.56-8.15l0,0c-3.51-0.99-7.16,1.05-8.15,4.56l-21.71,78.51
			c-0.99,3.51,1.05,7.16,4.56,8.15l0,0c3.51,0.99,7.16-1.05,8.15-4.56L330.79,123.47z"/>
		<path d="M71.8,40.62c0,11.44-9.36,20.8-20.8,20.8s-20.8-9.12-20.8-20.57c0-11.44,9.28-21.03,20.72-21.03
			C62.37,19.82,71.8,29.17,71.8,40.62z"/>
		<g>
			<path d="M76.69,72.54c-0.29-1.67-1.26-3.04-2.56-3.91c-1.29-1.09-2.96-1.75-4.78-1.75H32.33c-1.51,0-2.91,0.45-4.08,1.23
				c-1.78,0.76-3.16,2.38-3.52,4.43l-5.55,30.3h63.07L76.69,72.54z"/>
		</g>
		<path d="M0.25,8.41C-0.74,4.9,1.3,1.24,4.81,0.25l0,0c3.51-0.99,7.16,1.05,8.15,4.56l21.71,78.51c0.99,3.51-1.05,7.16-4.56,8.15
			l0,0c-3.51,0.99-7.16-1.05-8.15-4.56L0.25,8.41z"/>
		<path d="M101.27,8.41c0.99-3.51-1.05-7.16-4.56-8.15l0,0c-3.51-0.99-7.16,1.05-8.15,4.56L66.84,83.32
			c-0.99,3.51,1.05,7.16,4.56,8.15l0,0c3.51,0.99,7.16-1.05,8.15-4.56L101.27,8.41z"/>
		<path d="M186.27,40.62c0,11.44-9.36,20.8-20.8,20.8s-20.8-9.12-20.8-20.57c0-11.44,9.28-21.03,20.72-21.03
			C176.84,19.82,186.27,29.17,186.27,40.62z"/>
		<g>
			<path d="M191.16,72.54c-0.29-1.67-1.26-3.04-2.56-3.91c-1.29-1.09-2.96-1.75-4.78-1.75H146.8c-1.51,0-2.91,0.45-4.08,1.23
				c-1.78,0.76-3.16,2.38-3.52,4.43l-5.55,30.3h63.07L191.16,72.54z"/>
		</g>
		<path d="M114.71,8.41c-0.99-3.51,1.05-7.16,4.56-8.15l0,0c3.51-0.99,7.16,1.05,8.15,4.56l21.71,78.51
			c0.99,3.51-1.05,7.16-4.56,8.15l0,0c-3.51,0.99-7.16-1.05-8.15-4.56L114.71,8.41z"/>
		<path d="M215.73,8.41c0.99-3.51-1.05-7.16-4.56-8.15l0,0c-3.51-0.99-7.16,1.05-8.15,4.56L181.3,83.32
			c-0.99,3.51,1.05,7.16,4.56,8.15l0,0c3.51,0.99,7.16-1.05,8.15-4.56L215.73,8.41z"/>
		<path d="M301.33,40.62c0,11.44-9.36,20.8-20.8,20.8c-11.44,0-20.8-9.12-20.8-20.57c0-11.44,9.28-21.03,20.72-21.03
			C291.9,19.82,301.33,29.17,301.33,40.62z"/>
		<g>
			<path d="M306.22,72.54c-0.29-1.67-1.26-3.04-2.56-3.91c-1.29-1.09-2.96-1.75-4.78-1.75h-37.01c-1.51,0-2.91,0.45-4.08,1.23
				c-1.78,0.76-3.16,2.38-3.52,4.43l-5.55,30.3h63.07L306.22,72.54z"/>
		</g>
		<path d="M229.77,8.41c-0.99-3.51,1.05-7.16,4.56-8.15l0,0c3.51-0.99,7.16,1.05,8.15,4.56l21.71,78.51
			c0.99,3.51-1.05,7.16-4.56,8.15l0,0c-3.51,0.99-7.16-1.05-8.15-4.56L229.77,8.41z"/>
		<path d="M330.79,8.41c0.99-3.51-1.05-7.16-4.56-8.15l0,0c-3.51-0.99-7.16,1.05-8.15,4.56l-21.71,78.51
			c-0.99,3.51,1.05,7.16,4.56,8.15l0,0c3.51,0.99,7.16-1.05,8.15-4.56L330.79,8.41z"/>
	</g>
</g>
<g id="dots_on_fans">
	<circle id="dots" class="st0" cx="50.04" cy="41" r="5"/>
	<circle id="dots_1_" class="st0" cx="165.04" cy="41" r="5"/>
	<circle id="dots_2_" class="st0" cx="280.04" cy="41" r="5"/>
	<circle id="dots_3_" class="st1" cx="280.04" cy="157" r="5"/>
	<circle id="dots_4_" class="st1" cx="165.04" cy="157" r="5"/>
	<circle id="dots_5_" class="st1" cx="51.04" cy="156" r="5"/>
	<circle id="dots_6_" class="st2" cx="280.04" cy="273" r="5"/>
	<circle id="dots_7_" class="st2" cx="165.04" cy="274" r="5"/>
	<circle id="dots_8_" class="st2" cx="51.04" cy="272" r="5"/>
</g>
</svg>
