<?xml version="1.0" encoding="utf-8"?>
<!-- Generator: Adobe Illustrator 23.0.1, SVG Export Plug-In . SVG Version: 6.00 Build 0)  -->
<svg version="1.1" id="soccerboot" xmlns="http://www.w3.org/2000/svg" xmlns:xlink="http://www.w3.org/1999/xlink" x="0px" y="0px"
	 viewBox="0 0 538.01 245.34" style="enable-background:new 0 0 538.01 245.34;" xml:space="preserve">
<g id="steps">
	<g>
		<g>
			<path d="M16.39,182.47c1.37,3.45,4.76,6.42,8.49,8.02c-2.88,1.52-4.89,4.4-4.89,7.94v11.17c0,5.27,4.27,9.67,9.54,9.81
				c1.77,0.05,3.75,0.1,5.92,0.16c5.27,0.15,9.55,1.7,9.55,3.47v3.25c0,5.43,4.56,9.8,10.07,9.48c5.08-0.3,8.93-4.76,8.93-9.85
				c0,0,0-0.94,0-2.59c0-1.66,4.35-2.87,9.73-2.73c2.48,0.07,5,0.14,7.54,0.2c5.37,0.15,9.74,1.44,9.74,2.88v2.59
				c0,5.43,4.56,9.8,10.07,9.48c5.08-0.3,8.93-4.76,8.93-9.85c0,0,0-0.69,0-1.98c0-1.28,4.28-2.2,9.55-2.06
				c11.82,0.31,23.12,0.61,32.8,0.85c40.39,1.03,90.52,4.13,143.11,5.59c5.27,0.15,9.54,1.87,9.54,3.87v3.66
				c0,5.24,4.25,9.5,9.5,9.5c5.25,0,9.5-4.26,9.5-9.5c0,0,0-1.58,0-3.51s4.29-3.43,9.6-3.37c2.93,0.03,5.86,0.05,8.79,0.06
				c5.31,0.02,9.61,1.53,9.61,3.4v3.41c0,5.43,4.55,9.8,10.07,9.48c5.09-0.29,8.93-4.76,8.93-9.85c0,0,0-1.22,0-3.17
				c0-1.94,4.29-3.59,9.57-3.72c17.55-0.47,34.92-1.35,51.9-2.76c5.27-0.43,9.53,0.51,9.53,2.17v3.05c0,5.24,4.25,9.5,9.5,9.5
				c5.25,0,9.5-4.26,9.5-9.5c0,0,0-1.83,0-4.11c0-2.27,4.26-4.64,9.52-5.39c7.14-1.02,14.17-2.16,21.05-3.44
				c5.21-0.97,9.43,0.4,9.43,3.18v5.06c0,5.43,4.56,9.8,10.07,9.48c5.08-0.3,8.93-4.76,8.93-9.85c0,0,0-2.98,0-7.02
				s4.03-8.35,8.98-9.71c4.96-1.37,8.92-6.2,8.92-10.57c0-3.04-2.03-4.91-4.93-5.39c3-2.19,5.1-5.61,5.06-8.98
				c-0.05-4.2-0.1-8.4-0.1-8.63c0-26.62-30.31-33.9-75.79-44.83l-6.02-1.45c-7.27-1.75-20.61-4.7-40.55-10.6
				c-5.06-1.5-10.77,1.19-12.78,6.06l-6.41,15.54c-1.47,3.65-5.67,5.38-9.3,3.88c-3.67-1.48-5.4-5.67-3.9-9.32l5.94-14.5
				c2-4.88-0.44-10.18-5.41-11.93c-0.86-0.3-1.72-0.6-2.57-0.91c-4.98-1.76-10.83,0.68-13.08,5.46l-7.4,15.72
				c-1.67,3.58-5.92,5.11-9.51,3.44c-3.57-1.66-5.11-5.91-3.42-9.48l6.82-14.62c2.22-4.79,0.02-10.17-4.9-12.09
				c-0.1-0.04-0.2-0.08-0.29-0.11c-4.92-1.92-10.97,0.19-13.56,4.8l-9.04,16.17c-2.09,3.37-6.48,4.44-9.85,2.38
				c-3.37-2.06-4.42-6.47-2.37-9.82l8.01-14.41c2.56-4.61,0.72-10.09-4.03-12.39c-0.47-0.22-0.93-0.44-1.39-0.67
				c-4.74-2.32-10.9-0.72-13.78,3.71l-10.93,16.71c-2.28,3.22-6.76,3.98-9.97,1.69c-3.21-2.29-3.98-6.74-1.68-9.96l9.92-15.26
				c2.89-4.43,1.48-10.11-2.99-12.9c-0.34-0.22-0.68-0.42-1.02-0.64c-4.47-2.8-10.62-1.9-13.88,2.26l-12.42,15.81
				c-2.48,3.08-6.97,3.58-10.06,1.12c-3.07-2.46-3.58-6.97-1.1-10.04l12.21-15.56c3.26-4.15,5.07-8.2,4.07-9.06
				c-0.6-0.53-1.2-1.05-1.8-1.58c-2.94-2.67-5.8-5.2-8.6-7.66c-7.69-5.74-22.87-9.62-40.95,0.59
				c-17.27,9.75-56.21,21.58-89.36,11.52c-22.92-7.14-40.18-20.25-48.91-37.79C71.35,5.89,67.8,0.49,60.78,0.05
				C51.74-0.54,45.87,3.9,26.53,27.11c-3.92,4.72-7.61,9.69-11.19,15.72c-2.69,4.54-1.25,11.16,2.97,14.31
				c48.67,36.24,124.05,57.64,215.4,75.05c77.24,14.72,116.1,53.58,129.8,70.49c1.52,1.88,3.78,3.63,6.24,5.03
				c-2.86-0.23-5.19-0.54-5.95-0.77c-0.74-0.22-1.51-0.35-2.32-0.35c-0.77,0-1.51,0.11-2.22,0.32c-1.19,0.33-6.37,0.73-11.65,0.55
				c-14.37-0.47-28.64-1.23-42.87-2.05c0.59-1.3,0.28-3.05-1.29-5.01c-33.78-42.12-95.7-55.63-167.38-75.33
				C73.57,107.87,33.64,83.51,13.55,68.79c-4.26-3.09-8.66-2.59-9.67,1.42c-1.01,4.02,1.33,10.46,5.27,13.97
				c38.96,34.83,115.8,61.34,167.42,74.24c39.13,9.79,62.61,28.49,73.52,39.3c1.69,1.67,4.08,3.3,6.62,4.65
				c-2.07-0.14-4.19-0.27-6.25-0.41l-41.17-2.76c-7.98-0.5-15.78-0.98-23.48-1.43c0.64-1.3,0.31-3.07-1.38-4.98
				c-16.78-18.97-48.36-31.95-89.43-47.59c-32.86-12.51-65.8-32.94-87.05-51.12c-4.02-3.43-7.49-2.68-7.73,1.94
				C0.08,98.68,0,101.46,0,104.37c0,3.69,0.1,7.55,0.33,11.6C1.76,141.69,10.77,168.17,16.39,182.47z"/>
		</g>
	</g>
	<g>
	</g>
	<g>
	</g>
	<g>
	</g>
	<g>
	</g>
	<g>
	</g>
	<g>
	</g>
	<g>
	</g>
	<g>
	</g>
	<g>
	</g>
	<g>
	</g>
	<g>
	</g>
	<g>
	</g>
	<g>
	</g>
	<g>
	</g>
	<g>
	</g>
</g>
</svg>
