<?xml version="1.0" encoding="utf-8"?>
<!-- Generator: Adobe Illustrator 23.0.1, SVG Export Plug-In . SVG Version: 6.00 Build 0)  -->
<svg version="1.1" id="whistle" xmlns="http://www.w3.org/2000/svg" xmlns:xlink="http://www.w3.org/1999/xlink" x="0px" y="0px"
	 viewBox="0 0 352.52 207.03" style="enable-background:new 0 0 352.52 207.03;" xml:space="preserve">
<g id="steps">
	<g>
		<g>
			<path d="M104.52,0.01C38.55,0.01-13.14,60.52,2.97,128.56c8.73,36.88,37.63,65.91,74.4,75.08
				c62.26,15.53,118.53-24.26,129.59-80.1c0.65-3.3,1.04-6.14,1.09-6.29c0.02-0.09,0.05-0.17,0.08-0.28
				C223.71,53.9,325.74,49.26,348.12,49c0,0,0.98,0,2.2,0c1.21,0,2.2-2.73,2.2-6.09V6.15c0-3.4-2.75-6.15-6.15-6.15L191.52,0v25h-28
				V0L104.52,0.01L104.52,0.01z"/>
		</g>
	</g>
	<g>
	</g>
	<g>
	</g>
	<g>
	</g>
	<g>
	</g>
	<g>
	</g>
	<g>
	</g>
	<g>
	</g>
	<g>
	</g>
	<g>
	</g>
	<g>
	</g>
	<g>
	</g>
	<g>
	</g>
	<g>
	</g>
	<g>
	</g>
	<g>
	</g>
</g>
</svg>
